<?xml version="1.0" encoding="utf-8"?>
<!-- Generator: Adobe Illustrator 24.0.1, SVG Export Plug-In . SVG Version: 6.00 Build 0)  -->
<svg version="1.1" id="Layer_1" xmlns="http://www.w3.org/2000/svg" xmlns:xlink="http://www.w3.org/1999/xlink" x="0px" y="0px"
	 viewBox="0 0 500 500" style="enable-background:new 0 0 500 500;" xml:space="preserve">
<style type="text/css">
	.st0{fill:#FFFFFF;}
</style>
<rect x="0" y="0" class="st0" width="500" height="500"/>
<g>
	<path d="M239.5,80.46v76.57h-9.95l-37.08-60.6v60.6H182.4V80.46h10.61l36.42,59.83V80.46H239.5z"/>
	<path d="M267.17,153.36c-4.89-3.17-8.64-7.73-11.27-13.67c-2.62-5.94-3.94-12.92-3.94-20.95c0-8.02,1.31-15,3.94-20.95
		c2.63-5.94,6.38-10.5,11.27-13.67c4.88-3.17,10.65-4.76,17.28-4.76c6.64,0,12.38,1.59,17.23,4.76c4.85,3.17,8.59,7.73,11.21,13.67
		c2.63,5.94,3.94,12.93,3.94,20.95c0,8.02-1.31,15-3.94,20.95c-2.62,5.94-6.36,10.5-11.21,13.67c-4.85,3.17-10.59,4.76-17.23,4.76
		C277.82,158.12,272.06,156.53,267.17,153.36z M296.32,146.2c3.39-2.55,5.98-6.18,7.77-10.88c1.79-4.7,2.68-10.23,2.68-16.57
		c0-6.34-0.89-11.87-2.68-16.57c-1.79-4.7-4.38-8.33-7.77-10.88c-3.39-2.55-7.35-3.83-11.87-3.83c-4.59,0-8.57,1.28-11.92,3.83
		c-3.35,2.55-5.94,6.18-7.77,10.88c-1.82,4.7-2.73,10.23-2.73,16.57c0,6.34,0.91,11.87,2.73,16.57c1.82,4.7,4.41,8.33,7.77,10.88
		c3.35,2.55,7.33,3.83,11.92,3.83C288.98,150.02,292.93,148.75,296.32,146.2z"/>
	<path d="M38.13,211.72h22.53c8.46,0,14.86,1.97,19.2,5.91c4.34,3.94,6.51,9.7,6.51,17.28c0,8.02-2.26,14.17-6.78,18.43
		c-4.52,4.27-11.01,6.4-19.47,6.4H48.19v28.55H38.13V211.72z M61.42,251.42c4.88,0,8.66-1.38,11.32-4.16
		c2.66-2.77,3.99-6.71,3.99-11.81c0-5.03-1.39-8.86-4.16-11.49c-2.77-2.63-6.78-3.94-12.03-3.94H48.19v31.39H61.42z"/>
	<path d="M100.8,211.72h23.52c8.31,0,14.51,1.7,18.6,5.09c4.08,3.39,6.13,8.52,6.13,15.37c0,5.11-1.28,9.43-3.83,12.96
		c-2.55,3.54-6.09,5.93-10.61,7.16v0.22c1.53,1.02,2.77,2.1,3.72,3.23c0.95,1.13,1.75,2.5,2.41,4.1l11.49,28.44h-10.83l-9.63-24.72
		c-1.24-3.21-2.73-5.36-4.48-6.45c-1.75-1.09-4.48-1.64-8.2-1.64h-8.2v32.81H100.8V211.72z M123.77,247.27
		c10.43,0,15.64-4.81,15.64-14.44c0-4.3-1.31-7.51-3.94-9.63c-2.63-2.11-6.64-3.17-12.03-3.17h-12.58v27.24H123.77z"/>
	<path d="M164.35,211.72h45.94v8.31h-35.88v23.85h32.05v8.31h-32.05v27.78h35.88v8.31h-45.94V211.72z"/>
	<path d="M279.86,211.72l-26.14,76.57h-9.84l-26.14-76.57h10.72l20.35,63.22l20.35-63.22H279.86z"/>
	<path d="M292.66,211.72h10.06v76.57h-10.06V211.72z"/>
	<path d="M322.52,211.72h45.94v8.31h-35.88v23.85h32.05v8.31h-32.05v27.78h35.88v8.31h-45.94V211.72z"/>
	<path d="M461.87,211.72l-15.86,76.57h-9.95l-16.52-62.79l-16.63,62.79h-9.95l-15.97-76.57h10.83l10.72,61.15l15.86-61.15h10.17
		l15.75,60.93l10.72-60.93H461.87z"/>
	<path d="M100.86,342.98h10.06v76.57h-10.06V342.98z"/>
	<path d="M200.29,342.98v76.57h-9.84v-57.97L169,419.54h-7l-21.44-57.97v57.97h-9.84v-76.57h11.59l23.19,63.88l23.19-63.88H200.29z"
		/>
	<path d="M256.62,403.03h-29.75l-5.14,16.52h-10.72l26.03-76.57h9.41l26.03,76.57h-10.72L256.62,403.03z M253.99,394.82
		l-12.25-39.27l-12.25,39.27H253.99z"/>
	<path d="M337.23,379.95v39.6h-6.78l-1.64-4.81c-2.41,1.9-5.23,3.36-8.48,4.38c-3.24,1.02-6.69,1.53-10.34,1.53
		c-6.56,0-12.25-1.59-17.06-4.76c-4.81-3.17-8.5-7.71-11.05-13.62c-2.55-5.91-3.83-12.91-3.83-21c0-7.95,1.37-14.88,4.1-20.78
		c2.73-5.91,6.6-10.48,11.59-13.73c4.99-3.24,10.85-4.87,17.56-4.87c5.69,0,10.72,1.06,15.1,3.17c4.38,2.12,7.58,5.03,9.63,8.75
		l-5.58,5.58c-1.9-2.99-4.47-5.27-7.71-6.84c-3.25-1.57-7.02-2.35-11.32-2.35c-7.29,0-12.98,2.73-17.06,8.2
		c-4.09,5.47-6.13,13.09-6.13,22.86c0,9.92,1.99,17.65,5.96,23.19c3.97,5.54,9.53,8.31,16.68,8.31c3.35,0,6.44-0.47,9.24-1.42
		c2.81-0.95,5.2-2.33,7.16-4.16v-19.8h-18.27v-7.44H337.23z"/>
	<path d="M352.76,342.98h45.94v8.31h-35.88v23.85h32.05v8.31h-32.05v27.78h35.88v8.31h-45.94V342.98z"/>
</g>
</svg>
